<?xml version="1.0" encoding="UTF-8" standalone="no"?>
<!DOCTYPE svg PUBLIC "-//W3C//DTD SVG 1.1//EN"
 "http://www.w3.org/Graphics/SVG/1.1/DTD/svg11.dtd">
<!-- Generated by graphviz version 2.40.1 (20161225.0304)
 -->
<!-- Title: openvino models Pages: 1 -->
<svg width="322pt" height="504pt"
 viewBox="0.00 0.00 322.00 504.00" xmlns="http://www.w3.org/2000/svg" xmlns:xlink="http://www.w3.org/1999/xlink">
<g id="graph0" class="graph" transform="scale(1 1) rotate(0) translate(4 500)">
<title>openvino models</title>
<polygon fill="#ffffff" stroke="transparent" points="-4,4 -4,-500 318,-500 318,4 -4,4"/>
<!-- Parameter_3859 -->
<g id="node1" class="node">
<title>Parameter_3859</title>
<g id="a_node1"><a xlink:title="Parameter_3859&#10;&#45;&#45;&#45;&#45;attributes&#45;&#45;&#45;&#45;&#10;element_type=f32&#10;&#45;&#45;&#45;&#45;rt_info&#45;&#45;&#45;&#45;&#10;execOrder=3&#10;execTimeMcs=not_executed&#10;layerType=Input&#10;originalLayersNames=Parameter_3859&#10;outputLayouts=abcd&#10;outputPrecisions=FP32&#10;primitiveType=unknown_FP32&#10;runtimePrecision=FP32">
<path fill="#00ffff" stroke="#000000" d="M8.6667,-393.5C8.6667,-393.5 91.3333,-393.5 91.3333,-393.5 95.6667,-393.5 100,-397.8333 100,-402.1667 100,-402.1667 100,-410.8333 100,-410.8333 100,-415.1667 95.6667,-419.5 91.3333,-419.5 91.3333,-419.5 8.6667,-419.5 8.6667,-419.5 4.3333,-419.5 0,-415.1667 0,-410.8333 0,-410.8333 0,-402.1667 0,-402.1667 0,-397.8333 4.3333,-393.5 8.6667,-393.5"/>
<text text-anchor="middle" x="50" y="-409.9" font-family="Times,serif" font-size="12.00" fill="#000000">Input</text>
<polyline fill="none" stroke="#000000" points="0,-406.5 100,-406.5 "/>
<text text-anchor="middle" x="50" y="-396.9" font-family="Times,serif" font-size="12.00" fill="#000000">Parameter_3859</text>
</a>
</g>
</g>
<!-- Convolution_3861 -->
<g id="node4" class="node">
<title>Convolution_3861</title>
<g id="a_node4"><a xlink:title="Convolution_3861&#10;&#45;&#45;&#45;&#45;rt_info&#45;&#45;&#45;&#45;&#10;execOrder=4&#10;execTimeMcs=not_executed&#10;layerType=Convolution&#10;originalLayersNames=Convolution_3861,Relu_3863&#10;outputLayouts=aBcd8b&#10;outputPrecisions=FP32&#10;primitiveType=jit_avx2_FP32&#10;runtimePrecision=FP32">
<path fill="#00ffff" stroke="#000000" d="M78.5,-304.5C78.5,-304.5 163.5,-304.5 163.5,-304.5 169.5,-304.5 175.5,-310.5 175.5,-316.5 175.5,-316.5 175.5,-331.5 175.5,-331.5 175.5,-337.5 169.5,-343.5 163.5,-343.5 163.5,-343.5 78.5,-343.5 78.5,-343.5 72.5,-343.5 66.5,-337.5 66.5,-331.5 66.5,-331.5 66.5,-316.5 66.5,-316.5 66.5,-310.5 72.5,-304.5 78.5,-304.5"/>
<text text-anchor="middle" x="121" y="-333.9" font-family="Times,serif" font-size="12.00" fill="#000000">Convolution</text>
<polyline fill="none" stroke="#000000" points="66.5,-330.5 175.5,-330.5 "/>
<text text-anchor="middle" x="121" y="-320.9" font-family="Times,serif" font-size="12.00" fill="#000000">Convolution_3861</text>
<polyline fill="none" stroke="#000000" points="66.5,-317.5 175.5,-317.5 "/>
<text text-anchor="middle" x="121" y="-307.9" font-family="Times,serif" font-size="12.00" fill="#000000">Relu_3863</text>
</a>
</g>
</g>
<!-- Parameter_3859&#45;&gt;Convolution_3861 -->
<g id="edge2" class="edge">
<title>Parameter_3859&#45;&gt;Convolution_3861</title>
<path fill="none" stroke="#000000" d="M47.0175,-393.4581C45.6011,-384.0338 45.2835,-371.3666 51,-362 53.7655,-357.4686 57.2758,-353.4417 61.2453,-349.8699"/>
<polygon fill="#000000" stroke="#000000" points="63.6263,-352.452 69.3699,-343.5491 59.328,-346.9271 63.6263,-352.452"/>
<text text-anchor="middle" x="110.5" y="-365.4" font-family="Times,serif" font-size="12.00" fill="#000000">[2,3,7,7] abcd FP32</text>
</g>
<!-- Constant_3860 -->
<g id="node2" class="node">
<title>Constant_3860</title>
<g id="a_node2"><a xlink:title="Constant_3860&#10;&#45;&#45;&#45;&#45;rt_info&#45;&#45;&#45;&#45;&#10;execOrder=1&#10;execTimeMcs=not_executed&#10;layerType=Const&#10;originalLayersNames=Constant_3860&#10;outputLayouts=abcd&#10;outputPrecisions=FP32&#10;primitiveType=unknown_FP32&#10;runtimePrecision=FP32">
<path fill="#00ffff" stroke="#000000" d="M155.1667,-469.5C155.1667,-469.5 228.8333,-469.5 228.8333,-469.5 233.1667,-469.5 237.5,-473.8333 237.5,-478.1667 237.5,-478.1667 237.5,-486.8333 237.5,-486.8333 237.5,-491.1667 233.1667,-495.5 228.8333,-495.5 228.8333,-495.5 155.1667,-495.5 155.1667,-495.5 150.8333,-495.5 146.5,-491.1667 146.5,-486.8333 146.5,-486.8333 146.5,-478.1667 146.5,-478.1667 146.5,-473.8333 150.8333,-469.5 155.1667,-469.5"/>
<text text-anchor="middle" x="192" y="-485.9" font-family="Times,serif" font-size="12.00" fill="#000000">Const</text>
<polyline fill="none" stroke="#000000" points="146.5,-482.5 237.5,-482.5 "/>
<text text-anchor="middle" x="192" y="-472.9" font-family="Times,serif" font-size="12.00" fill="#000000">Constant_3860</text>
</a>
</g>
</g>
<!-- Constant_3860_abcd_Acdb8a_Convolution_3861 -->
<g id="node3" class="node">
<title>Constant_3860_abcd_Acdb8a_Convolution_3861</title>
<g id="a_node3"><a xlink:title="Constant_3860_abcd_Acdb8a_Convolution_3861&#10;&#45;&#45;&#45;&#45;rt_info&#45;&#45;&#45;&#45;&#10;execOrder=2&#10;execTimeMcs=not_executed&#10;layerType=Reorder&#10;originalLayersNames=&#10;outputLayouts=Acdb8a&#10;outputPrecisions=FP32&#10;primitiveType=ref_any_FP32&#10;runtimePrecision=FP32">
<path fill="#00ffff" stroke="#000000" d="M175.6667,-393.5C175.6667,-393.5 208.3333,-393.5 208.3333,-393.5 212.6667,-393.5 217,-397.8333 217,-402.1667 217,-402.1667 217,-410.8333 217,-410.8333 217,-415.1667 212.6667,-419.5 208.3333,-419.5 208.3333,-419.5 175.6667,-419.5 175.6667,-419.5 171.3333,-419.5 167,-415.1667 167,-410.8333 167,-410.8333 167,-402.1667 167,-402.1667 167,-397.8333 171.3333,-393.5 175.6667,-393.5"/>
<text text-anchor="middle" x="192" y="-409.9" font-family="Times,serif" font-size="12.00" fill="#000000">Reorder</text>
<polyline fill="none" stroke="#000000" points="167,-406.5 217,-406.5 "/>
<text text-anchor="middle" x="192" y="-396.9" font-family="Times,serif" font-size="12.00" fill="#000000"> </text>
</a>
</g>
</g>
<!-- Constant_3860&#45;&gt;Constant_3860_abcd_Acdb8a_Convolution_3861 -->
<g id="edge1" class="edge">
<title>Constant_3860&#45;&gt;Constant_3860_abcd_Acdb8a_Convolution_3861</title>
<path fill="none" stroke="#000000" d="M192,-469.2618C192,-458.3639 192,-442.6535 192,-429.6775"/>
<polygon fill="#000000" stroke="#000000" points="195.5001,-429.5865 192,-419.5865 188.5001,-429.5865 195.5001,-429.5865"/>
<text text-anchor="middle" x="251.5" y="-441.4" font-family="Times,serif" font-size="12.00" fill="#000000">[1,3,1,1] abcd FP32</text>
</g>
<!-- Constant_3860_abcd_Acdb8a_Convolution_3861&#45;&gt;Convolution_3861 -->
<g id="edge3" class="edge">
<title>Constant_3860_abcd_Acdb8a_Convolution_3861&#45;&gt;Convolution_3861</title>
<path fill="none" stroke="#000000" d="M187.2453,-393.1245C183.4988,-383.7755 177.635,-371.3426 170,-362 166.5513,-357.78 162.5504,-353.743 158.3505,-349.9816"/>
<polygon fill="#000000" stroke="#000000" points="160.5644,-347.2704 150.6522,-343.5289 156.0677,-352.6351 160.5644,-347.2704"/>
<text text-anchor="middle" x="246" y="-365.4" font-family="Times,serif" font-size="12.00" fill="#000000">[1,3,1,1] Acdb8a FP32</text>
</g>
<!-- Convolution_3861_aBcd8b_abcd_MaxPool_3862 -->
<g id="node5" class="node">
<title>Convolution_3861_aBcd8b_abcd_MaxPool_3862</title>
<g id="a_node5"><a xlink:title="Convolution_3861_aBcd8b_abcd_MaxPool_3862&#10;&#45;&#45;&#45;&#45;rt_info&#45;&#45;&#45;&#45;&#10;execOrder=5&#10;execTimeMcs=not_executed&#10;layerType=Reorder&#10;originalLayersNames=&#10;outputLayouts=abcd&#10;outputPrecisions=FP32&#10;primitiveType=ref_any_FP32&#10;runtimePrecision=FP32">
<path fill="#00ffff" stroke="#000000" d="M104.6667,-228.5C104.6667,-228.5 137.3333,-228.5 137.3333,-228.5 141.6667,-228.5 146,-232.8333 146,-237.1667 146,-237.1667 146,-245.8333 146,-245.8333 146,-250.1667 141.6667,-254.5 137.3333,-254.5 137.3333,-254.5 104.6667,-254.5 104.6667,-254.5 100.3333,-254.5 96,-250.1667 96,-245.8333 96,-245.8333 96,-237.1667 96,-237.1667 96,-232.8333 100.3333,-228.5 104.6667,-228.5"/>
<text text-anchor="middle" x="121" y="-244.9" font-family="Times,serif" font-size="12.00" fill="#000000">Reorder</text>
<polyline fill="none" stroke="#000000" points="96,-241.5 146,-241.5 "/>
<text text-anchor="middle" x="121" y="-231.9" font-family="Times,serif" font-size="12.00" fill="#000000"> </text>
</a>
</g>
</g>
<!-- Convolution_3861&#45;&gt;Convolution_3861_aBcd8b_abcd_MaxPool_3862 -->
<g id="edge4" class="edge">
<title>Convolution_3861&#45;&gt;Convolution_3861_aBcd8b_abcd_MaxPool_3862</title>
<path fill="none" stroke="#000000" d="M121,-304.4487C121,-292.6555 121,-277.5544 121,-265.0993"/>
<polygon fill="#000000" stroke="#000000" points="124.5001,-264.9847 121,-254.9847 117.5001,-264.9847 124.5001,-264.9847"/>
<text text-anchor="middle" x="189" y="-276.4" font-family="Times,serif" font-size="12.00" fill="#000000">[2,1,7,7] aBcd8b FP32</text>
</g>
<!-- MaxPool_3862 -->
<g id="node6" class="node">
<title>MaxPool_3862</title>
<g id="a_node6"><a xlink:title="MaxPool_3862&#10;&#45;&#45;&#45;&#45;rt_info&#45;&#45;&#45;&#45;&#10;execOrder=6&#10;execTimeMcs=not_executed&#10;layerType=Pooling&#10;originalLayersNames=MaxPool_3862&#10;outputLayouts=abcd&#10;outputPrecisions=FP32&#10;primitiveType=ref_any_FP32&#10;runtimePrecision=FP32">
<path fill="#00ffff" stroke="#000000" d="M85.1667,-152.5C85.1667,-152.5 156.8333,-152.5 156.8333,-152.5 161.1667,-152.5 165.5,-156.8333 165.5,-161.1667 165.5,-161.1667 165.5,-169.8333 165.5,-169.8333 165.5,-174.1667 161.1667,-178.5 156.8333,-178.5 156.8333,-178.5 85.1667,-178.5 85.1667,-178.5 80.8333,-178.5 76.5,-174.1667 76.5,-169.8333 76.5,-169.8333 76.5,-161.1667 76.5,-161.1667 76.5,-156.8333 80.8333,-152.5 85.1667,-152.5"/>
<text text-anchor="middle" x="121" y="-168.9" font-family="Times,serif" font-size="12.00" fill="#000000">Pooling</text>
<polyline fill="none" stroke="#000000" points="76.5,-165.5 165.5,-165.5 "/>
<text text-anchor="middle" x="121" y="-155.9" font-family="Times,serif" font-size="12.00" fill="#000000">MaxPool_3862</text>
</a>
</g>
</g>
<!-- Convolution_3861_aBcd8b_abcd_MaxPool_3862&#45;&gt;MaxPool_3862 -->
<g id="edge5" class="edge">
<title>Convolution_3861_aBcd8b_abcd_MaxPool_3862&#45;&gt;MaxPool_3862</title>
<path fill="none" stroke="#000000" d="M121,-228.2618C121,-217.3639 121,-201.6535 121,-188.6775"/>
<polygon fill="#000000" stroke="#000000" points="124.5001,-188.5865 121,-178.5865 117.5001,-188.5865 124.5001,-188.5865"/>
<text text-anchor="middle" x="180.5" y="-200.4" font-family="Times,serif" font-size="12.00" fill="#000000">[2,1,7,7] abcd FP32</text>
</g>
<!-- Reshape_3865 -->
<g id="node8" class="node">
<title>Reshape_3865</title>
<g id="a_node8"><a xlink:title="Reshape_3865&#10;&#45;&#45;&#45;&#45;rt_info&#45;&#45;&#45;&#45;&#10;execOrder=7&#10;execTimeMcs=not_executed&#10;layerType=Reshape&#10;originalLayersNames=Reshape_3865&#10;outputLayouts=a&#10;outputPrecisions=FP32&#10;primitiveType=unknown_FP32&#10;runtimePrecision=FP32">
<path fill="#00ffff" stroke="#000000" d="M156.6667,-76.5C156.6667,-76.5 227.3333,-76.5 227.3333,-76.5 231.6667,-76.5 236,-80.8333 236,-85.1667 236,-85.1667 236,-93.8333 236,-93.8333 236,-98.1667 231.6667,-102.5 227.3333,-102.5 227.3333,-102.5 156.6667,-102.5 156.6667,-102.5 152.3333,-102.5 148,-98.1667 148,-93.8333 148,-93.8333 148,-85.1667 148,-85.1667 148,-80.8333 152.3333,-76.5 156.6667,-76.5"/>
<text text-anchor="middle" x="192" y="-92.9" font-family="Times,serif" font-size="12.00" fill="#000000">Reshape</text>
<polyline fill="none" stroke="#000000" points="148,-89.5 236,-89.5 "/>
<text text-anchor="middle" x="192" y="-79.9" font-family="Times,serif" font-size="12.00" fill="#000000">Reshape_3865</text>
</a>
</g>
</g>
<!-- MaxPool_3862&#45;&gt;Reshape_3865 -->
<g id="edge6" class="edge">
<title>MaxPool_3862&#45;&gt;Reshape_3865</title>
<path fill="none" stroke="#000000" d="M117.8124,-152.3276C116.294,-142.8385 115.9387,-130.1473 122,-121 126.2005,-114.6609 132.0063,-109.5827 138.4931,-105.5183"/>
<polygon fill="#000000" stroke="#000000" points="140.5245,-108.3999 147.674,-100.5811 137.2091,-102.2349 140.5245,-108.3999"/>
<text text-anchor="middle" x="181.5" y="-124.4" font-family="Times,serif" font-size="12.00" fill="#000000">[2,1,2,2] abcd FP32</text>
</g>
<!-- Constant_3864 -->
<g id="node7" class="node">
<title>Constant_3864</title>
<g id="a_node7"><a xlink:title="Constant_3864&#10;&#45;&#45;&#45;&#45;rt_info&#45;&#45;&#45;&#45;&#10;execOrder=0&#10;execTimeMcs=not_executed&#10;layerType=Const&#10;originalLayersNames=Constant_3864&#10;outputLayouts=a&#10;outputPrecisions=I32&#10;primitiveType=unknown_I32&#10;runtimePrecision=I32">
<path fill="#00ffff" stroke="#000000" d="M226.1667,-152.5C226.1667,-152.5 299.8333,-152.5 299.8333,-152.5 304.1667,-152.5 308.5,-156.8333 308.5,-161.1667 308.5,-161.1667 308.5,-169.8333 308.5,-169.8333 308.5,-174.1667 304.1667,-178.5 299.8333,-178.5 299.8333,-178.5 226.1667,-178.5 226.1667,-178.5 221.8333,-178.5 217.5,-174.1667 217.5,-169.8333 217.5,-169.8333 217.5,-161.1667 217.5,-161.1667 217.5,-156.8333 221.8333,-152.5 226.1667,-152.5"/>
<text text-anchor="middle" x="263" y="-168.9" font-family="Times,serif" font-size="12.00" fill="#000000">Const</text>
<polyline fill="none" stroke="#000000" points="217.5,-165.5 308.5,-165.5 "/>
<text text-anchor="middle" x="263" y="-155.9" font-family="Times,serif" font-size="12.00" fill="#000000">Constant_3864</text>
</a>
</g>
</g>
<!-- Constant_3864&#45;&gt;Reshape_3865 -->
<g id="edge7" class="edge">
<title>Constant_3864&#45;&gt;Reshape_3865</title>
<path fill="none" stroke="#000000" d="M258.6488,-152.3144C255.0317,-142.8187 249.1547,-130.1251 241,-121 236.7545,-116.2493 231.6311,-111.9292 226.3189,-108.1153"/>
<polygon fill="#000000" stroke="#000000" points="228.1849,-105.1532 217.9149,-102.5499 224.3199,-110.9895 228.1849,-105.1532"/>
<text text-anchor="middle" x="275" y="-124.4" font-family="Times,serif" font-size="12.00" fill="#000000">[1] a I32</text>
</g>
<!-- Result_3871 -->
<g id="node9" class="node">
<title>Result_3871</title>
<g id="a_node9"><a xlink:title="Result_3871&#10;&#45;&#45;&#45;&#45;rt_info&#45;&#45;&#45;&#45;&#10;execOrder=8&#10;execTimeMcs=not_executed&#10;layerType=Output&#10;originalLayersNames=Result_3871&#10;outputLayouts=undef&#10;outputPrecisions=FP32&#10;primitiveType=unknown_FP32&#10;runtimePrecision=FP32">
<path fill="#00ffff" stroke="#000000" d="M163.6667,-.5C163.6667,-.5 220.3333,-.5 220.3333,-.5 224.6667,-.5 229,-4.8333 229,-9.1667 229,-9.1667 229,-17.8333 229,-17.8333 229,-22.1667 224.6667,-26.5 220.3333,-26.5 220.3333,-26.5 163.6667,-26.5 163.6667,-26.5 159.3333,-26.5 155,-22.1667 155,-17.8333 155,-17.8333 155,-9.1667 155,-9.1667 155,-4.8333 159.3333,-.5 163.6667,-.5"/>
<text text-anchor="middle" x="192" y="-16.9" font-family="Times,serif" font-size="12.00" fill="#000000">Output</text>
<polyline fill="none" stroke="#000000" points="155,-13.5 229,-13.5 "/>
<text text-anchor="middle" x="192" y="-3.9" font-family="Times,serif" font-size="12.00" fill="#000000">Result_3871</text>
</a>
</g>
</g>
<!-- Reshape_3865&#45;&gt;Result_3871 -->
<g id="edge8" class="edge">
<title>Reshape_3865&#45;&gt;Result_3871</title>
<path fill="none" stroke="#000000" d="M192,-76.2618C192,-65.3639 192,-49.6535 192,-36.6775"/>
<polygon fill="#000000" stroke="#000000" points="195.5001,-36.5865 192,-26.5865 188.5001,-36.5865 195.5001,-36.5865"/>
<text text-anchor="middle" x="224" y="-48.4" font-family="Times,serif" font-size="12.00" fill="#000000">[8] a FP32</text>
</g>
</g>
</svg>
