<?xml version="1.0" encoding="UTF-8" standalone="no"?>
<!DOCTYPE svg PUBLIC "-//W3C//DTD SVG 1.1//EN"
 "http://www.w3.org/Graphics/SVG/1.1/DTD/svg11.dtd">
<!-- Generated by graphviz version 2.40.1 (20161225.0304)
 -->
<!-- Title: openvino models Pages: 1 -->
<svg width="312pt" height="504pt"
 viewBox="0.00 0.00 312.00 504.00" xmlns="http://www.w3.org/2000/svg" xmlns:xlink="http://www.w3.org/1999/xlink">
<g id="graph0" class="graph" transform="scale(1 1) rotate(0) translate(4 500)">
<title>openvino models</title>
<polygon fill="#ffffff" stroke="transparent" points="-4,4 -4,-500 308,-500 308,4 -4,4"/>
<!-- Parameter_0 -->
<g id="node1" class="node">
<title>Parameter_0</title>
<g id="a_node1"><a xlink:title="Parameter_0&#10;&#45;&#45;&#45;&#45;attributes&#45;&#45;&#45;&#45;&#10;element_type=f32&#10;&#45;&#45;&#45;&#45;rt_info&#45;&#45;&#45;&#45;&#10;execOrder=3&#10;execTimeMcs=not_executed&#10;layerType=Input&#10;originalLayersNames=Parameter_0&#10;outputLayouts=abcd&#10;outputPrecisions=FP32&#10;primitiveType=unknown_FP32&#10;runtimePrecision=FP32">
<path fill="#00ffff" stroke="#000000" d="M8.6667,-393.5C8.6667,-393.5 69.3333,-393.5 69.3333,-393.5 73.6667,-393.5 78,-397.8333 78,-402.1667 78,-402.1667 78,-410.8333 78,-410.8333 78,-415.1667 73.6667,-419.5 69.3333,-419.5 69.3333,-419.5 8.6667,-419.5 8.6667,-419.5 4.3333,-419.5 0,-415.1667 0,-410.8333 0,-410.8333 0,-402.1667 0,-402.1667 0,-397.8333 4.3333,-393.5 8.6667,-393.5"/>
<text text-anchor="middle" x="39" y="-409.9" font-family="Times,serif" font-size="12.00" fill="#000000">Input</text>
<polyline fill="none" stroke="#000000" points="0,-406.5 78,-406.5 "/>
<text text-anchor="middle" x="39" y="-396.9" font-family="Times,serif" font-size="12.00" fill="#000000">Parameter_0</text>
</a>
</g>
</g>
<!-- Convolution_2 -->
<g id="node4" class="node">
<title>Convolution_2</title>
<g id="a_node4"><a xlink:title="Convolution_2&#10;&#45;&#45;&#45;&#45;rt_info&#45;&#45;&#45;&#45;&#10;execOrder=4&#10;execTimeMcs=not_executed&#10;layerType=Convolution&#10;originalLayersNames=Convolution_2,Relu_4&#10;outputLayouts=aBcd8b&#10;outputPrecisions=FP32&#10;primitiveType=jit_avx2_FP32&#10;runtimePrecision=FP32">
<path fill="#00ffff" stroke="#000000" d="M78.5,-304.5C78.5,-304.5 141.5,-304.5 141.5,-304.5 147.5,-304.5 153.5,-310.5 153.5,-316.5 153.5,-316.5 153.5,-331.5 153.5,-331.5 153.5,-337.5 147.5,-343.5 141.5,-343.5 141.5,-343.5 78.5,-343.5 78.5,-343.5 72.5,-343.5 66.5,-337.5 66.5,-331.5 66.5,-331.5 66.5,-316.5 66.5,-316.5 66.5,-310.5 72.5,-304.5 78.5,-304.5"/>
<text text-anchor="middle" x="110" y="-333.9" font-family="Times,serif" font-size="12.00" fill="#000000">Convolution</text>
<polyline fill="none" stroke="#000000" points="66.5,-330.5 153.5,-330.5 "/>
<text text-anchor="middle" x="110" y="-320.9" font-family="Times,serif" font-size="12.00" fill="#000000">Convolution_2</text>
<polyline fill="none" stroke="#000000" points="66.5,-317.5 153.5,-317.5 "/>
<text text-anchor="middle" x="110" y="-307.9" font-family="Times,serif" font-size="12.00" fill="#000000">Relu_4</text>
</a>
</g>
</g>
<!-- Parameter_0&#45;&gt;Convolution_2 -->
<g id="edge2" class="edge">
<title>Parameter_0&#45;&gt;Convolution_2</title>
<path fill="none" stroke="#000000" d="M36.0175,-393.4581C34.6011,-384.0338 34.2835,-371.3666 40,-362 44.3053,-354.9456 50.4156,-349.1139 57.2535,-344.3185"/>
<polygon fill="#000000" stroke="#000000" points="59.5501,-347.0141 66.2228,-338.7845 55.8745,-341.0568 59.5501,-347.0141"/>
<text text-anchor="middle" x="99.5" y="-365.4" font-family="Times,serif" font-size="12.00" fill="#000000">[2,3,7,7] abcd FP32</text>
</g>
<!-- Constant_1 -->
<g id="node2" class="node">
<title>Constant_1</title>
<g id="a_node2"><a xlink:title="Constant_1&#10;&#45;&#45;&#45;&#45;rt_info&#45;&#45;&#45;&#45;&#10;execOrder=1&#10;execTimeMcs=not_executed&#10;layerType=Const&#10;originalLayersNames=Constant_1&#10;outputLayouts=abcd&#10;outputPrecisions=FP32&#10;primitiveType=unknown_FP32&#10;runtimePrecision=FP32">
<path fill="#00ffff" stroke="#000000" d="M155.6667,-469.5C155.6667,-469.5 206.3333,-469.5 206.3333,-469.5 210.6667,-469.5 215,-473.8333 215,-478.1667 215,-478.1667 215,-486.8333 215,-486.8333 215,-491.1667 210.6667,-495.5 206.3333,-495.5 206.3333,-495.5 155.6667,-495.5 155.6667,-495.5 151.3333,-495.5 147,-491.1667 147,-486.8333 147,-486.8333 147,-478.1667 147,-478.1667 147,-473.8333 151.3333,-469.5 155.6667,-469.5"/>
<text text-anchor="middle" x="181" y="-485.9" font-family="Times,serif" font-size="12.00" fill="#000000">Const</text>
<polyline fill="none" stroke="#000000" points="147,-482.5 215,-482.5 "/>
<text text-anchor="middle" x="181" y="-472.9" font-family="Times,serif" font-size="12.00" fill="#000000">Constant_1</text>
</a>
</g>
</g>
<!-- Constant_1_abcd_Acdb8a_Convolution_2 -->
<g id="node3" class="node">
<title>Constant_1_abcd_Acdb8a_Convolution_2</title>
<g id="a_node3"><a xlink:title="Constant_1_abcd_Acdb8a_Convolution_2&#10;&#45;&#45;&#45;&#45;rt_info&#45;&#45;&#45;&#45;&#10;execOrder=2&#10;execTimeMcs=not_executed&#10;layerType=Reorder&#10;originalLayersNames=&#10;outputLayouts=Acdb8a&#10;outputPrecisions=FP32&#10;primitiveType=ref_any_FP32&#10;runtimePrecision=FP32">
<path fill="#00ffff" stroke="#000000" d="M164.6667,-393.5C164.6667,-393.5 197.3333,-393.5 197.3333,-393.5 201.6667,-393.5 206,-397.8333 206,-402.1667 206,-402.1667 206,-410.8333 206,-410.8333 206,-415.1667 201.6667,-419.5 197.3333,-419.5 197.3333,-419.5 164.6667,-419.5 164.6667,-419.5 160.3333,-419.5 156,-415.1667 156,-410.8333 156,-410.8333 156,-402.1667 156,-402.1667 156,-397.8333 160.3333,-393.5 164.6667,-393.5"/>
<text text-anchor="middle" x="181" y="-409.9" font-family="Times,serif" font-size="12.00" fill="#000000">Reorder</text>
<polyline fill="none" stroke="#000000" points="156,-406.5 206,-406.5 "/>
<text text-anchor="middle" x="181" y="-396.9" font-family="Times,serif" font-size="12.00" fill="#000000"> </text>
</a>
</g>
</g>
<!-- Constant_1&#45;&gt;Constant_1_abcd_Acdb8a_Convolution_2 -->
<g id="edge1" class="edge">
<title>Constant_1&#45;&gt;Constant_1_abcd_Acdb8a_Convolution_2</title>
<path fill="none" stroke="#000000" d="M181,-469.2618C181,-458.3639 181,-442.6535 181,-429.6775"/>
<polygon fill="#000000" stroke="#000000" points="184.5001,-429.5865 181,-419.5865 177.5001,-429.5865 184.5001,-429.5865"/>
<text text-anchor="middle" x="240.5" y="-441.4" font-family="Times,serif" font-size="12.00" fill="#000000">[1,3,1,1] abcd FP32</text>
</g>
<!-- Constant_1_abcd_Acdb8a_Convolution_2&#45;&gt;Convolution_2 -->
<g id="edge3" class="edge">
<title>Constant_1_abcd_Acdb8a_Convolution_2&#45;&gt;Convolution_2</title>
<path fill="none" stroke="#000000" d="M176.2453,-393.1245C172.4988,-383.7755 166.635,-371.3426 159,-362 155.5513,-357.78 151.5504,-353.743 147.3505,-349.9816"/>
<polygon fill="#000000" stroke="#000000" points="149.5644,-347.2704 139.6522,-343.5289 145.0677,-352.6351 149.5644,-347.2704"/>
<text text-anchor="middle" x="236" y="-365.4" font-family="Times,serif" font-size="12.00" fill="#000000">[1,3,1,1] Acdb8a FP32</text>
</g>
<!-- Convolution_2_aBcd8b_abcd_MaxPool_3 -->
<g id="node5" class="node">
<title>Convolution_2_aBcd8b_abcd_MaxPool_3</title>
<g id="a_node5"><a xlink:title="Convolution_2_aBcd8b_abcd_MaxPool_3&#10;&#45;&#45;&#45;&#45;rt_info&#45;&#45;&#45;&#45;&#10;execOrder=5&#10;execTimeMcs=not_executed&#10;layerType=Reorder&#10;originalLayersNames=&#10;outputLayouts=abcd&#10;outputPrecisions=FP32&#10;primitiveType=ref_any_FP32&#10;runtimePrecision=FP32">
<path fill="#00ffff" stroke="#000000" d="M93.6667,-228.5C93.6667,-228.5 126.3333,-228.5 126.3333,-228.5 130.6667,-228.5 135,-232.8333 135,-237.1667 135,-237.1667 135,-245.8333 135,-245.8333 135,-250.1667 130.6667,-254.5 126.3333,-254.5 126.3333,-254.5 93.6667,-254.5 93.6667,-254.5 89.3333,-254.5 85,-250.1667 85,-245.8333 85,-245.8333 85,-237.1667 85,-237.1667 85,-232.8333 89.3333,-228.5 93.6667,-228.5"/>
<text text-anchor="middle" x="110" y="-244.9" font-family="Times,serif" font-size="12.00" fill="#000000">Reorder</text>
<polyline fill="none" stroke="#000000" points="85,-241.5 135,-241.5 "/>
<text text-anchor="middle" x="110" y="-231.9" font-family="Times,serif" font-size="12.00" fill="#000000"> </text>
</a>
</g>
</g>
<!-- Convolution_2&#45;&gt;Convolution_2_aBcd8b_abcd_MaxPool_3 -->
<g id="edge4" class="edge">
<title>Convolution_2&#45;&gt;Convolution_2_aBcd8b_abcd_MaxPool_3</title>
<path fill="none" stroke="#000000" d="M110,-304.4487C110,-292.6555 110,-277.5544 110,-265.0993"/>
<polygon fill="#000000" stroke="#000000" points="113.5001,-264.9847 110,-254.9847 106.5001,-264.9847 113.5001,-264.9847"/>
<text text-anchor="middle" x="178" y="-276.4" font-family="Times,serif" font-size="12.00" fill="#000000">[2,1,7,7] aBcd8b FP32</text>
</g>
<!-- MaxPool_3 -->
<g id="node6" class="node">
<title>MaxPool_3</title>
<g id="a_node6"><a xlink:title="MaxPool_3&#10;&#45;&#45;&#45;&#45;rt_info&#45;&#45;&#45;&#45;&#10;execOrder=6&#10;execTimeMcs=not_executed&#10;layerType=Pooling&#10;originalLayersNames=MaxPool_3&#10;outputLayouts=abcd&#10;outputPrecisions=FP32&#10;primitiveType=ref_any_FP32&#10;runtimePrecision=FP32">
<path fill="#00ffff" stroke="#000000" d="M85.1667,-152.5C85.1667,-152.5 134.8333,-152.5 134.8333,-152.5 139.1667,-152.5 143.5,-156.8333 143.5,-161.1667 143.5,-161.1667 143.5,-169.8333 143.5,-169.8333 143.5,-174.1667 139.1667,-178.5 134.8333,-178.5 134.8333,-178.5 85.1667,-178.5 85.1667,-178.5 80.8333,-178.5 76.5,-174.1667 76.5,-169.8333 76.5,-169.8333 76.5,-161.1667 76.5,-161.1667 76.5,-156.8333 80.8333,-152.5 85.1667,-152.5"/>
<text text-anchor="middle" x="110" y="-168.9" font-family="Times,serif" font-size="12.00" fill="#000000">Pooling</text>
<polyline fill="none" stroke="#000000" points="76.5,-165.5 143.5,-165.5 "/>
<text text-anchor="middle" x="110" y="-155.9" font-family="Times,serif" font-size="12.00" fill="#000000">MaxPool_3</text>
</a>
</g>
</g>
<!-- Convolution_2_aBcd8b_abcd_MaxPool_3&#45;&gt;MaxPool_3 -->
<g id="edge5" class="edge">
<title>Convolution_2_aBcd8b_abcd_MaxPool_3&#45;&gt;MaxPool_3</title>
<path fill="none" stroke="#000000" d="M110,-228.2618C110,-217.3639 110,-201.6535 110,-188.6775"/>
<polygon fill="#000000" stroke="#000000" points="113.5001,-188.5865 110,-178.5865 106.5001,-188.5865 113.5001,-188.5865"/>
<text text-anchor="middle" x="169.5" y="-200.4" font-family="Times,serif" font-size="12.00" fill="#000000">[2,1,7,7] abcd FP32</text>
</g>
<!-- Reshape_6 -->
<g id="node8" class="node">
<title>Reshape_6</title>
<g id="a_node8"><a xlink:title="Reshape_6&#10;&#45;&#45;&#45;&#45;rt_info&#45;&#45;&#45;&#45;&#10;execOrder=7&#10;execTimeMcs=not_executed&#10;layerType=Reshape&#10;originalLayersNames=Reshape_6&#10;outputLayouts=a&#10;outputPrecisions=FP32&#10;primitiveType=unknown_FP32&#10;runtimePrecision=FP32">
<path fill="#00ffff" stroke="#000000" d="M157.1667,-76.5C157.1667,-76.5 204.8333,-76.5 204.8333,-76.5 209.1667,-76.5 213.5,-80.8333 213.5,-85.1667 213.5,-85.1667 213.5,-93.8333 213.5,-93.8333 213.5,-98.1667 209.1667,-102.5 204.8333,-102.5 204.8333,-102.5 157.1667,-102.5 157.1667,-102.5 152.8333,-102.5 148.5,-98.1667 148.5,-93.8333 148.5,-93.8333 148.5,-85.1667 148.5,-85.1667 148.5,-80.8333 152.8333,-76.5 157.1667,-76.5"/>
<text text-anchor="middle" x="181" y="-92.9" font-family="Times,serif" font-size="12.00" fill="#000000">Reshape</text>
<polyline fill="none" stroke="#000000" points="148.5,-89.5 213.5,-89.5 "/>
<text text-anchor="middle" x="181" y="-79.9" font-family="Times,serif" font-size="12.00" fill="#000000">Reshape_6</text>
</a>
</g>
</g>
<!-- MaxPool_3&#45;&gt;Reshape_6 -->
<g id="edge6" class="edge">
<title>MaxPool_3&#45;&gt;Reshape_6</title>
<path fill="none" stroke="#000000" d="M106.8124,-152.3276C105.294,-142.8385 104.9387,-130.1473 111,-121 117.5474,-111.1191 127.9953,-104.3017 138.8429,-99.6118"/>
<polygon fill="#000000" stroke="#000000" points="140.2667,-102.8156 148.3905,-96.0146 137.7986,-96.2651 140.2667,-102.8156"/>
<text text-anchor="middle" x="170.5" y="-124.4" font-family="Times,serif" font-size="12.00" fill="#000000">[2,1,2,2] abcd FP32</text>
</g>
<!-- Constant_5 -->
<g id="node7" class="node">
<title>Constant_5</title>
<g id="a_node7"><a xlink:title="Constant_5&#10;&#45;&#45;&#45;&#45;rt_info&#45;&#45;&#45;&#45;&#10;execOrder=0&#10;execTimeMcs=not_executed&#10;layerType=Const&#10;originalLayersNames=Constant_5&#10;outputLayouts=a&#10;outputPrecisions=I32&#10;primitiveType=unknown_I32&#10;runtimePrecision=I32">
<path fill="#00ffff" stroke="#000000" d="M226.6667,-152.5C226.6667,-152.5 277.3333,-152.5 277.3333,-152.5 281.6667,-152.5 286,-156.8333 286,-161.1667 286,-161.1667 286,-169.8333 286,-169.8333 286,-174.1667 281.6667,-178.5 277.3333,-178.5 277.3333,-178.5 226.6667,-178.5 226.6667,-178.5 222.3333,-178.5 218,-174.1667 218,-169.8333 218,-169.8333 218,-161.1667 218,-161.1667 218,-156.8333 222.3333,-152.5 226.6667,-152.5"/>
<text text-anchor="middle" x="252" y="-168.9" font-family="Times,serif" font-size="12.00" fill="#000000">Const</text>
<polyline fill="none" stroke="#000000" points="218,-165.5 286,-165.5 "/>
<text text-anchor="middle" x="252" y="-155.9" font-family="Times,serif" font-size="12.00" fill="#000000">Constant_5</text>
</a>
</g>
</g>
<!-- Constant_5&#45;&gt;Reshape_6 -->
<g id="edge7" class="edge">
<title>Constant_5&#45;&gt;Reshape_6</title>
<path fill="none" stroke="#000000" d="M247.6488,-152.3144C244.0317,-142.8187 238.1547,-130.1251 230,-121 225.7545,-116.2493 220.6311,-111.9292 215.3189,-108.1153"/>
<polygon fill="#000000" stroke="#000000" points="217.1849,-105.1532 206.9149,-102.5499 213.3199,-110.9895 217.1849,-105.1532"/>
<text text-anchor="middle" x="264" y="-124.4" font-family="Times,serif" font-size="12.00" fill="#000000">[1] a I32</text>
</g>
<!-- Result_12 -->
<g id="node9" class="node">
<title>Result_12</title>
<g id="a_node9"><a xlink:title="Result_12&#10;&#45;&#45;&#45;&#45;rt_info&#45;&#45;&#45;&#45;&#10;execOrder=8&#10;execTimeMcs=not_executed&#10;layerType=Output&#10;originalLayersNames=Result_12&#10;outputLayouts=undef&#10;outputPrecisions=FP32&#10;primitiveType=unknown_FP32&#10;runtimePrecision=FP32">
<path fill="#00ffff" stroke="#000000" d="M160.1667,-.5C160.1667,-.5 201.8333,-.5 201.8333,-.5 206.1667,-.5 210.5,-4.8333 210.5,-9.1667 210.5,-9.1667 210.5,-17.8333 210.5,-17.8333 210.5,-22.1667 206.1667,-26.5 201.8333,-26.5 201.8333,-26.5 160.1667,-26.5 160.1667,-26.5 155.8333,-26.5 151.5,-22.1667 151.5,-17.8333 151.5,-17.8333 151.5,-9.1667 151.5,-9.1667 151.5,-4.8333 155.8333,-.5 160.1667,-.5"/>
<text text-anchor="middle" x="181" y="-16.9" font-family="Times,serif" font-size="12.00" fill="#000000">Output</text>
<polyline fill="none" stroke="#000000" points="151.5,-13.5 210.5,-13.5 "/>
<text text-anchor="middle" x="181" y="-3.9" font-family="Times,serif" font-size="12.00" fill="#000000">Result_12</text>
</a>
</g>
</g>
<!-- Reshape_6&#45;&gt;Result_12 -->
<g id="edge8" class="edge">
<title>Reshape_6&#45;&gt;Result_12</title>
<path fill="none" stroke="#000000" d="M181,-76.2618C181,-65.3639 181,-49.6535 181,-36.6775"/>
<polygon fill="#000000" stroke="#000000" points="184.5001,-36.5865 181,-26.5865 177.5001,-36.5865 184.5001,-36.5865"/>
<text text-anchor="middle" x="213" y="-48.4" font-family="Times,serif" font-size="12.00" fill="#000000">[8] a FP32</text>
</g>
</g>
</svg>
