<?xml version="1.0" encoding="UTF-8" standalone="no"?>
<!DOCTYPE svg PUBLIC "-//W3C//DTD SVG 1.1//EN"
 "http://www.w3.org/Graphics/SVG/1.1/DTD/svg11.dtd">
<!-- Generated by graphviz version 2.40.1 (20161225.0304)
 -->
<!-- Title: openvino models Pages: 1 -->
<svg width="213pt" height="337pt"
 viewBox="0.00 0.00 212.50 337.00" xmlns="http://www.w3.org/2000/svg" xmlns:xlink="http://www.w3.org/1999/xlink">
<g id="graph0" class="graph" transform="scale(1 1) rotate(0) translate(4 333)">
<title>openvino models</title>
<polygon fill="#ffffff" stroke="transparent" points="-4,4 -4,-333 208.5,-333 208.5,4 -4,4"/>
<!-- Parameter_3859 -->
<g id="node1" class="node">
<title>Parameter_3859</title>
<g id="a_node1"><a xlink:title="Parameter_3859&#10;&#45;&#45;&#45;&#45;attributes&#45;&#45;&#45;&#45;&#10;element_type=f32">
<path fill="#ffd700" stroke="#000000" d="M4.3333,-315.5C4.3333,-315.5 59.6667,-315.5 59.6667,-315.5 61.8333,-315.5 64,-317.6667 64,-319.8333 64,-319.8333 64,-324.1667 64,-324.1667 64,-326.3333 61.8333,-328.5 59.6667,-328.5 59.6667,-328.5 4.3333,-328.5 4.3333,-328.5 2.1667,-328.5 0,-326.3333 0,-324.1667 0,-324.1667 0,-319.8333 0,-319.8333 0,-317.6667 2.1667,-315.5 4.3333,-315.5"/>
<text text-anchor="middle" x="32" y="-318.9" font-family="Times,serif" font-size="12.00" fill="#000000">Parameter</text>
</a>
</g>
</g>
<!-- Convolution_3861 -->
<g id="node3" class="node">
<title>Convolution_3861</title>
<g id="a_node3"><a xlink:title="Convolution_3861&#10;&#45;&#45;&#45;&#45;attributes&#45;&#45;&#45;&#45;&#10;strides=[1, 1]&#10;dilations=[1, 1]&#10;pads_begin=[0, 0]&#10;pads_end=[0, 0]&#10;auto_pad=explicit">
<path fill="#00ffff" stroke="#000000" d="M47.8333,-252.5C47.8333,-252.5 112.1667,-252.5 112.1667,-252.5 114.3333,-252.5 116.5,-254.6667 116.5,-256.8333 116.5,-256.8333 116.5,-261.1667 116.5,-261.1667 116.5,-263.3333 114.3333,-265.5 112.1667,-265.5 112.1667,-265.5 47.8333,-265.5 47.8333,-265.5 45.6667,-265.5 43.5,-263.3333 43.5,-261.1667 43.5,-261.1667 43.5,-256.8333 43.5,-256.8333 43.5,-254.6667 45.6667,-252.5 47.8333,-252.5"/>
<text text-anchor="middle" x="80" y="-255.9" font-family="Times,serif" font-size="12.00" fill="#000000">Convolution</text>
</a>
</g>
</g>
<!-- Parameter_3859&#45;&gt;Convolution_3861 -->
<g id="edge1" class="edge">
<title>Parameter_3859&#45;&gt;Convolution_3861</title>
<path fill="none" stroke="#000000" d="M30.264,-315.2459C28.5926,-307.1671 27.0965,-293.5403 33,-284 36.5107,-278.3266 41.7786,-273.865 47.5336,-270.3828"/>
<polygon fill="#000000" stroke="#000000" points="49.4614,-273.3295 56.7956,-265.6837 46.2941,-267.087 49.4614,-273.3295"/>
<text text-anchor="middle" x="70" y="-287.4" font-family="Times,serif" font-size="12.00" fill="#000000">[2,3,7,7] f32</text>
</g>
<!-- Constant_3860 -->
<g id="node2" class="node">
<title>Constant_3860</title>
<g id="a_node2"><a xlink:title="Constant_3860&#10;&#45;&#45;&#45;&#45;attributes&#45;&#45;&#45;&#45;&#10;element_type=f32&#10;shape=[1, 3, 1, 1]">
<path fill="#c0c0c0" stroke="#000000" d="M105.8333,-315.5C105.8333,-315.5 152.1667,-315.5 152.1667,-315.5 154.3333,-315.5 156.5,-317.6667 156.5,-319.8333 156.5,-319.8333 156.5,-324.1667 156.5,-324.1667 156.5,-326.3333 154.3333,-328.5 152.1667,-328.5 152.1667,-328.5 105.8333,-328.5 105.8333,-328.5 103.6667,-328.5 101.5,-326.3333 101.5,-324.1667 101.5,-324.1667 101.5,-319.8333 101.5,-319.8333 101.5,-317.6667 103.6667,-315.5 105.8333,-315.5"/>
<text text-anchor="middle" x="129" y="-318.9" font-family="Times,serif" font-size="12.00" fill="#000000">Constant</text>
</a>
</g>
</g>
<!-- Constant_3860&#45;&gt;Convolution_3861 -->
<g id="edge2" class="edge">
<title>Constant_3860&#45;&gt;Convolution_3861</title>
<path fill="none" stroke="#000000" d="M125.9592,-315.4432C122.1379,-307.5585 115.0913,-294.1229 107,-284 103.8639,-280.0765 100.1074,-276.2049 96.4072,-272.7233"/>
<polygon fill="#000000" stroke="#000000" points="98.4652,-269.8704 88.6603,-265.8561 93.8218,-275.1086 98.4652,-269.8704"/>
<text text-anchor="middle" x="152" y="-287.4" font-family="Times,serif" font-size="12.00" fill="#000000">[1,3,1,1] f32</text>
</g>
<!-- MaxPool_3862 -->
<g id="node4" class="node">
<title>MaxPool_3862</title>
<g id="a_node4"><a xlink:title="MaxPool_3862&#10;&#45;&#45;&#45;&#45;attributes&#45;&#45;&#45;&#45;&#10;strides=[4, 4]&#10;pads_begin=[0, 0]&#10;pads_end=[0, 0]&#10;kernel=[4, 4]&#10;rounding_type=ceil&#10;auto_pad=explicit">
<path fill="#00ffff" stroke="#000000" d="M57.8333,-189.5C57.8333,-189.5 102.1667,-189.5 102.1667,-189.5 104.3333,-189.5 106.5,-191.6667 106.5,-193.8333 106.5,-193.8333 106.5,-198.1667 106.5,-198.1667 106.5,-200.3333 104.3333,-202.5 102.1667,-202.5 102.1667,-202.5 57.8333,-202.5 57.8333,-202.5 55.6667,-202.5 53.5,-200.3333 53.5,-198.1667 53.5,-198.1667 53.5,-193.8333 53.5,-193.8333 53.5,-191.6667 55.6667,-189.5 57.8333,-189.5"/>
<text text-anchor="middle" x="80" y="-192.9" font-family="Times,serif" font-size="12.00" fill="#000000">MaxPool</text>
</a>
</g>
</g>
<!-- Convolution_3861&#45;&gt;MaxPool_3862 -->
<g id="edge3" class="edge">
<title>Convolution_3861&#45;&gt;MaxPool_3862</title>
<path fill="none" stroke="#000000" d="M80,-252.2579C80,-242.9255 80,-225.761 80,-212.8363"/>
<polygon fill="#000000" stroke="#000000" points="83.5001,-212.5048 80,-202.5048 76.5001,-212.5049 83.5001,-212.5048"/>
<text text-anchor="middle" x="117" y="-224.4" font-family="Times,serif" font-size="12.00" fill="#000000">[2,1,7,7] f32</text>
</g>
<!-- Relu_3863 -->
<g id="node5" class="node">
<title>Relu_3863</title>
<g id="a_node5"><a xlink:title="Relu_3863">
<path fill="#00ffff" stroke="#000000" d="M70.3333,-126.5C70.3333,-126.5 89.6667,-126.5 89.6667,-126.5 91.8333,-126.5 94,-128.6667 94,-130.8333 94,-130.8333 94,-135.1667 94,-135.1667 94,-137.3333 91.8333,-139.5 89.6667,-139.5 89.6667,-139.5 70.3333,-139.5 70.3333,-139.5 68.1667,-139.5 66,-137.3333 66,-135.1667 66,-135.1667 66,-130.8333 66,-130.8333 66,-128.6667 68.1667,-126.5 70.3333,-126.5"/>
<text text-anchor="middle" x="80" y="-129.9" font-family="Times,serif" font-size="12.00" fill="#000000">Relu</text>
</a>
</g>
</g>
<!-- MaxPool_3862&#45;&gt;Relu_3863 -->
<g id="edge4" class="edge">
<title>MaxPool_3862&#45;&gt;Relu_3863</title>
<path fill="none" stroke="#000000" d="M80,-189.2579C80,-179.9255 80,-162.761 80,-149.8363"/>
<polygon fill="#000000" stroke="#000000" points="83.5001,-149.5048 80,-139.5048 76.5001,-149.5049 83.5001,-149.5048"/>
<text text-anchor="middle" x="117" y="-161.4" font-family="Times,serif" font-size="12.00" fill="#000000">[2,1,2,2] f32</text>
</g>
<!-- Reshape_3865 -->
<g id="node7" class="node">
<title>Reshape_3865</title>
<g id="a_node7"><a xlink:title="Reshape_3865&#10;&#45;&#45;&#45;&#45;attributes&#45;&#45;&#45;&#45;&#10;special_zero=False">
<path fill="#00ffff" stroke="#000000" d="M106.3333,-63.5C106.3333,-63.5 149.6667,-63.5 149.6667,-63.5 151.8333,-63.5 154,-65.6667 154,-67.8333 154,-67.8333 154,-72.1667 154,-72.1667 154,-74.3333 151.8333,-76.5 149.6667,-76.5 149.6667,-76.5 106.3333,-76.5 106.3333,-76.5 104.1667,-76.5 102,-74.3333 102,-72.1667 102,-72.1667 102,-67.8333 102,-67.8333 102,-65.6667 104.1667,-63.5 106.3333,-63.5"/>
<text text-anchor="middle" x="128" y="-66.9" font-family="Times,serif" font-size="12.00" fill="#000000">Reshape</text>
</a>
</g>
</g>
<!-- Relu_3863&#45;&gt;Reshape_3865 -->
<g id="edge5" class="edge">
<title>Relu_3863&#45;&gt;Reshape_3865</title>
<path fill="none" stroke="#000000" d="M78.264,-126.2459C76.5926,-118.1671 75.0965,-104.5403 81,-95 84.5107,-89.3266 89.7786,-84.865 95.5336,-81.3828"/>
<polygon fill="#000000" stroke="#000000" points="97.4614,-84.3295 104.7956,-76.6837 94.2941,-78.087 97.4614,-84.3295"/>
<text text-anchor="middle" x="118" y="-98.4" font-family="Times,serif" font-size="12.00" fill="#000000">[2,1,2,2] f32</text>
</g>
<!-- Constant_3864 -->
<g id="node6" class="node">
<title>Constant_3864</title>
<g id="a_node6"><a xlink:title="Constant_3864&#10;&#45;&#45;&#45;&#45;attributes&#45;&#45;&#45;&#45;&#10;element_type=i64&#10;shape=[1]">
<path fill="#c0c0c0" stroke="#000000" d="M153.8333,-126.5C153.8333,-126.5 200.1667,-126.5 200.1667,-126.5 202.3333,-126.5 204.5,-128.6667 204.5,-130.8333 204.5,-130.8333 204.5,-135.1667 204.5,-135.1667 204.5,-137.3333 202.3333,-139.5 200.1667,-139.5 200.1667,-139.5 153.8333,-139.5 153.8333,-139.5 151.6667,-139.5 149.5,-137.3333 149.5,-135.1667 149.5,-135.1667 149.5,-130.8333 149.5,-130.8333 149.5,-128.6667 151.6667,-126.5 153.8333,-126.5"/>
<text text-anchor="middle" x="177" y="-129.9" font-family="Times,serif" font-size="12.00" fill="#000000">Constant</text>
</a>
</g>
</g>
<!-- Constant_3864&#45;&gt;Reshape_3865 -->
<g id="edge6" class="edge">
<title>Constant_3864&#45;&gt;Reshape_3865</title>
<path fill="none" stroke="#000000" d="M173.9592,-126.4432C170.1379,-118.5585 163.0913,-105.1229 155,-95 151.8639,-91.0765 148.1074,-87.2049 144.4072,-83.7233"/>
<polygon fill="#000000" stroke="#000000" points="146.4652,-80.8704 136.6603,-76.8561 141.8218,-86.1086 146.4652,-80.8704"/>
<text text-anchor="middle" x="183" y="-98.4" font-family="Times,serif" font-size="12.00" fill="#000000">[1] i64</text>
</g>
<!-- Result_3871 -->
<g id="node8" class="node">
<title>Result_3871</title>
<g id="a_node8"><a xlink:title="Result_3871">
<path fill="#ff1493" stroke="#000000" d="M113.3333,-.5C113.3333,-.5 142.6667,-.5 142.6667,-.5 144.8333,-.5 147,-2.6667 147,-4.8333 147,-4.8333 147,-9.1667 147,-9.1667 147,-11.3333 144.8333,-13.5 142.6667,-13.5 142.6667,-13.5 113.3333,-13.5 113.3333,-13.5 111.1667,-13.5 109,-11.3333 109,-9.1667 109,-9.1667 109,-4.8333 109,-4.8333 109,-2.6667 111.1667,-.5 113.3333,-.5"/>
<text text-anchor="middle" x="128" y="-3.9" font-family="Times,serif" font-size="12.00" fill="#000000">Result</text>
</a>
</g>
</g>
<!-- Reshape_3865&#45;&gt;Result_3871 -->
<g id="edge7" class="edge">
<title>Reshape_3865&#45;&gt;Result_3871</title>
<path fill="none" stroke="#000000" d="M128,-63.2579C128,-53.9255 128,-36.761 128,-23.8363"/>
<polygon fill="#000000" stroke="#000000" points="131.5001,-23.5048 128,-13.5048 124.5001,-23.5049 131.5001,-23.5048"/>
<text text-anchor="middle" x="148" y="-35.4" font-family="Times,serif" font-size="12.00" fill="#000000">[8] f32</text>
</g>
</g>
</svg>
