<?xml version="1.0" encoding="UTF-8" standalone="no"?>
<!DOCTYPE svg PUBLIC "-//W3C//DTD SVG 1.1//EN"
 "http://www.w3.org/Graphics/SVG/1.1/DTD/svg11.dtd">
<!-- Generated by graphviz version 2.40.1 (20161225.0304)
 -->
<!-- Title: openvino models relationship Pages: 1 -->
<svg width="415pt" height="305pt"
 viewBox="0.00 0.00 415.19 305.00" xmlns="http://www.w3.org/2000/svg" xmlns:xlink="http://www.w3.org/1999/xlink">
<g id="graph0" class="graph" transform="scale(1 1) rotate(0) translate(4 301)">
<title>openvino models relationship</title>
<polygon fill="#ffffff" stroke="transparent" points="-4,4 -4,-301 411.1908,-301 411.1908,4 -4,4"/>
<!-- Model -->
<g id="node1" class="node">
<title>Model</title>
<ellipse fill="none" stroke="#000000" cx="79.1908" cy="-192" rx="39.7935" ry="18"/>
<text text-anchor="middle" x="79.1908" y="-188.3" font-family="Times,serif" font-size="14.00" fill="#000000">Model</text>
</g>
<!-- CompiledModel -->
<g id="node2" class="node">
<title>CompiledModel</title>
<ellipse fill="none" stroke="#000000" cx="139.1908" cy="-105" rx="83.6854" ry="18"/>
<text text-anchor="middle" x="139.1908" y="-101.3" font-family="Times,serif" font-size="14.00" fill="#000000">CompiledModel</text>
</g>
<!-- Model&#45;&gt;CompiledModel -->
<g id="edge1" class="edge">
<title>Model&#45;&gt;CompiledModel</title>
<path fill="none" stroke="#0000ff" d="M72.3547,-173.8582C69.6594,-163.5609 68.4094,-150.8109 74.1908,-141 77.5431,-135.3111 82.1536,-130.458 87.385,-126.3337"/>
<polygon fill="#0000ff" stroke="#0000ff" points="89.7382,-128.9652 96.0254,-120.4375 85.7925,-123.1832 89.7382,-128.9652"/>
<text text-anchor="middle" x="133.1908" y="-144.8" font-family="Times,serif" font-size="14.00" fill="#000000">compile_model()</text>
</g>
<!-- IR -->
<g id="node3" class="node">
<title>IR</title>
<ellipse fill="none" stroke="#000000" cx="71.1908" cy="-18" rx="27" ry="18"/>
<text text-anchor="middle" x="71.1908" y="-14.3" font-family="Times,serif" font-size="14.00" fill="#000000">IR</text>
</g>
<!-- CompiledModel&#45;&gt;IR -->
<g id="edge2" class="edge">
<title>CompiledModel&#45;&gt;IR</title>
<path fill="none" stroke="#ff0000" d="M70.2869,-94.5619C41.5303,-88.6666 12.7989,-80.2045 4.1908,-69 -8.6674,-52.2637 14.2873,-38.1839 36.7501,-29.0873"/>
<polygon fill="#ff0000" stroke="#ff0000" points="38.124,-32.3098 46.2411,-25.5007 35.6495,-25.7617 38.124,-32.3098"/>
<text text-anchor="middle" x="60.6908" y="-57.8" font-family="Times,serif" font-size="14.00" fill="#000000">.export_model()</text>
</g>
<!-- Model(Runtime) -->
<g id="node5" class="node">
<title>Model(Runtime)</title>
<ellipse fill="none" stroke="#000000" cx="272.1908" cy="-18" rx="85.5853" ry="18"/>
<text text-anchor="middle" x="272.1908" y="-14.3" font-family="Times,serif" font-size="14.00" fill="#000000">Model(Runtime)</text>
</g>
<!-- CompiledModel&#45;&gt;Model(Runtime) -->
<g id="edge6" class="edge">
<title>CompiledModel&#45;&gt;Model(Runtime)</title>
<path fill="none" stroke="#ff0000" d="M196.8754,-91.8097C212.0316,-86.4583 227.6339,-79.08 240.1908,-69 248.0924,-62.6569 254.5983,-53.805 259.6324,-45.2537"/>
<polygon fill="#ff0000" stroke="#ff0000" points="262.8364,-46.6868 264.5138,-36.2256 256.6788,-43.3575 262.8364,-46.6868"/>
<text text-anchor="middle" x="330.1908" y="-57.8" font-family="Times,serif" font-size="14.00" fill="#000000">.get_runtime_model()</text>
</g>
<!-- IR&#45;&gt;CompiledModel -->
<g id="edge5" class="edge">
<title>IR&#45;&gt;CompiledModel</title>
<path fill="none" stroke="#0000ff" d="M91.4319,-30.4918C100.2359,-36.7057 110.1301,-44.8459 117.1908,-54 122.5501,-60.9483 126.8791,-69.401 130.2332,-77.4107"/>
<polygon fill="#0000ff" stroke="#0000ff" points="126.9965,-78.7458 133.8445,-86.83 133.5326,-76.2398 126.9965,-78.7458"/>
<text text-anchor="middle" x="181.1908" y="-57.8" font-family="Times,serif" font-size="14.00" fill="#000000">import_model()</text>
</g>
<!-- IR/ONNX/PDPD -->
<g id="node4" class="node">
<title>IR/ONNX/PDPD</title>
<ellipse fill="none" stroke="#000000" cx="139.1908" cy="-279" rx="85.5853" ry="18"/>
<text text-anchor="middle" x="139.1908" y="-275.3" font-family="Times,serif" font-size="14.00" fill="#000000">IR/ONNX/PDPD</text>
</g>
<!-- IR/ONNX/PDPD&#45;&gt;Model -->
<g id="edge4" class="edge">
<title>IR/ONNX/PDPD&#45;&gt;Model</title>
<path fill="none" stroke="#0000ff" d="M115.0788,-261.3324C108.9575,-255.9714 102.8136,-249.7077 98.1908,-243 93.3651,-235.998 89.5842,-227.6159 86.7098,-219.6895"/>
<polygon fill="#0000ff" stroke="#0000ff" points="89.9846,-218.4432 83.5434,-210.0312 83.3329,-220.624 89.9846,-218.4432"/>
<text text-anchor="middle" x="145.1908" y="-231.8" font-family="Times,serif" font-size="14.00" fill="#000000">read_model()</text>
</g>
<!-- IR/ONNX/PDPD&#45;&gt;CompiledModel -->
<g id="edge3" class="edge">
<title>IR/ONNX/PDPD&#45;&gt;CompiledModel</title>
<path fill="none" stroke="#0000ff" d="M173.9926,-262.5003C181.2883,-257.3284 188.0259,-250.8638 192.1908,-243 213.4084,-202.9385 213.4084,-181.0615 192.1908,-141 189.5877,-136.0851 185.9797,-131.7168 181.8585,-127.8691"/>
<polygon fill="#0000ff" stroke="#0000ff" points="183.9668,-125.0727 173.9926,-121.4997 179.5617,-130.5128 183.9668,-125.0727"/>
<text text-anchor="middle" x="266.1908" y="-188.3" font-family="Times,serif" font-size="14.00" fill="#000000">compile_model()</text>
</g>
</g>
</svg>
